<svg id="Layer_1" enable-background="new 0 0 511.976 511.976" height="512" viewBox="0 0 511.976 511.976" width="512" xmlns="http://www.w3.org/2000/svg"><path d="m507.008 430.59c-6.863-24.03-21.018-53.632-42.071-87.982-45.376-74.033-109.275-148.33-127.779-169.338-3.65-4.144-9.971-4.544-14.113-.895-4.145 3.651-4.545 9.97-.895 14.114 5.321 6.041 14.455 16.558 25.823 30.222l-21.204 21.204c-3.905 3.905-3.905 10.237 0 14.142 1.953 1.953 4.512 2.929 7.071 2.929s5.118-.977 7.071-2.929l19.819-19.818c26.459 32.619 60.183 76.815 87.154 120.82 2.241 3.657 4.383 7.241 6.457 10.775l-24.116 24.116c-3.905 3.905-3.905 10.237 0 14.143 1.953 1.953 4.512 2.929 7.071 2.929s5.118-.976 7.071-2.929l20.157-20.157c27.693 51.612 34.814 87.532 19.872 102.475-5.081 5.081-12.623 7.58-22.396 7.578-27.762-.003-73.498-20.183-131.673-58.583l20.994-20.994c3.905-3.905 3.905-10.237 0-14.143-3.904-3.904-10.234-3.905-14.143 0l-23.731 23.731c-71.571-49.48-139.048-109.437-159.554-129.943-.575-.575-1.138-1.151-1.699-1.728l28.641-28.642c3.905-3.905 3.905-10.237 0-14.142-3.906-3.905-10.236-3.905-14.143 0l-27.553 27.555c-12.698-17.111-19.097-34.535-19.064-52 .044-23.257 11.488-46.471 34.014-68.996 34.254-34.253 69.393-42.731 104.446-25.192 4.939 2.47 10.946.47 13.418-4.469 2.471-4.939.471-10.946-4.469-13.417-15.599-7.805-31.483-11.422-47.414-10.862-1.971-24.868-7.369-47.742-15.482-65.234-10.443-22.515-24.961-34.914-40.88-34.915-19.44 0-36.521 18.604-46.922 50.43-29.856-15.15-55.09-16.228-68.838-2.48-13.746 13.747-12.668 38.98 2.481 68.837-31.829 10.4-50.43 27.48-50.429 46.921 0 15.901 12.375 30.408 34.846 40.848 17.494 8.128 40.392 13.537 65.287 15.512-.034.992-.055 1.985-.057 2.979-.055 28.785 13.294 56.757 39.675 83.139 22.542 22.542 93.753 85.813 169.988 137.502 41.568 28.185 77.411 47.908 106.535 58.622 17.467 6.426 32.743 9.637 45.759 9.637 15.358 0 27.569-4.472 36.506-13.408 14.389-14.391 17.238-37.257 8.469-67.964zm-487.008-266.867c0-9.582 14.744-22.902 47.687-31.063 3.083-.764 5.619-2.946 6.835-5.88 1.215-2.934.964-6.271-.676-8.99-17.523-29.063-18.53-48.908-11.755-55.684 6.776-6.776 26.622-5.769 55.684 11.754 2.72 1.64 6.058 1.891 8.991.675s5.116-3.752 5.88-6.834c8.16-32.942 21.48-47.687 31.063-47.687 14.927 0 32.851 33.708 36.516 83.02-20.767 5.285-41.036 17.685-60.278 36.927-19.356 19.356-31.722 39.55-36.97 60.274-49.281-3.671-82.977-21.602-82.977-36.512z"/><path d="m259.6 231.373-26.87 26.87c-3.905 3.905-3.905 10.237 0 14.143 1.953 1.953 4.512 2.929 7.071 2.929s5.118-.976 7.071-2.929l26.87-26.87c3.905-3.905 3.905-10.237 0-14.143-3.906-3.905-10.236-3.905-14.142 0z"/><path d="m344.006 330.631 26.052-26.053c3.905-3.905 3.905-10.237 0-14.142-3.906-3.905-10.236-3.906-14.143 0l-26.052 26.052c-3.905 3.906-3.905 10.237 0 14.143 1.953 1.953 4.512 2.929 7.071 2.929s5.119-.976 7.072-2.929z"/><path d="m299.114 156.836c5.522 0 10-4.477 10-10s-4.478-10-10-10h-.008c-5.522 0-9.996 4.477-9.996 10s4.482 10 10.004 10z"/></svg>