<svg id="Capa_1" enable-background="new 0 0 512 512" height="512" viewBox="0 0 512 512" width="512" xmlns="http://www.w3.org/2000/svg"><g><g><path d="m511.987 183.862c-.114-4.445-3.266-8.372-7.579-9.445l-216.18-53.65c-5.253-1.313-10.858 2.024-12.117 7.312-1.757 7.108-8.111 12.073-15.451 12.073-8.783 0-15.93-7.146-15.93-15.93 0-1.312.154-2.583.46-3.78 1.311-5.309-1.955-10.843-7.282-12.175l-78.02-19.36c-1.381-.343-2.821-.387-4.222-.128-118.824 21.916-152.721 111.152-155.311 141.044-.231 2.176-.355 4.383-.355 6.619v.001 124.619.004c0 34.364 27.957 62.321 62.32 62.321h439.68c5.522 0 10-4.477 10-10v-.005-229.26c0-.087-.011-.173-.013-.26zm-462.828-14.109c25.507-31.5 61.844-51.985 108.031-60.909l67.575 16.768c.734 19.169 16.549 34.54 35.895 34.54 13.101 0 24.804-7.022 31.09-17.905l128.439 31.875h-214.275-.004c-5.522 0-10 4.477-10 10s4.478 10 10 10h.004 286.086v209.26h-172.535c.004-.26.015-.52.015-.78 0-24.355-19.814-44.17-44.17-44.17-24.35 0-44.16 19.814-44.16 44.17 0 .26.011.52.015.78h-168.845c-23.336 0-42.32-18.985-42.32-42.32v-124.619c0-17.089 10.701-32.891 26.549-39.273 5-2.014 10.381-3.048 15.771-3.048h55.597.003c5.522 0 10-4.477 10-10s-4.478-10-10-10h-.003-55.597c-6.3 0-12.622.946-18.638 2.817 1.711-2.387 3.535-4.787 5.477-7.186zm201.991 232.849c0-13.327 10.838-24.17 24.16-24.17 13.327 0 24.17 10.843 24.17 24.17 0 .26-.004.521-.013.78h-48.305c-.008-.259-.012-.519-.012-.78z"/><path d="m81.092 297.259c0 33.885 27.567 61.452 61.452 61.452 7.282 0 14.341-1.247 21.065-3.714 5.765 4.321 12.809 6.707 20.164 6.707 18.561 0 33.661-15.1 33.661-33.661 0-10.788-5.144-20.738-13.56-27.002.08-1.267.12-2.528.12-3.782 0-33.885-27.566-61.452-61.451-61.452s-61.451 27.567-61.451 61.452zm61.452-41.453c22.856 0 41.451 18.595 41.451 41.452 0 2.401-.222 4.864-.659 7.321-.812 4.561 1.615 9.082 5.865 10.926 5.002 2.17 8.233 7.091 8.233 12.538 0 7.533-6.128 13.661-13.661 13.661-4.048 0-7.864-1.784-10.473-4.895-1.951-2.327-4.782-3.576-7.667-3.576-1.522 0-3.061.348-4.492 1.068-5.813 2.926-12.07 4.41-18.598 4.41-22.856 0-41.452-18.595-41.452-41.452.001-22.857 18.597-41.453 41.453-41.453z"/><path d="m309.479 284.458c18.137 0 32.892-14.755 32.892-32.892s-14.755-32.892-32.892-32.892-32.892 14.755-32.892 32.892 14.756 32.892 32.892 32.892zm0-45.783c7.108 0 12.892 5.783 12.892 12.892 0 7.108-5.783 12.892-12.892 12.892s-12.892-5.783-12.892-12.892c.001-7.109 5.784-12.892 12.892-12.892z"/><path d="m415.056 378.432c22.847 0 41.434-18.587 41.434-41.434s-18.587-41.434-41.434-41.434-41.434 18.587-41.434 41.434 18.587 41.434 41.434 41.434zm0-62.868c11.818 0 21.434 9.615 21.434 21.434s-9.615 21.434-21.434 21.434-21.434-9.615-21.434-21.434c0-11.818 9.615-21.434 21.434-21.434z"/><path d="m152.68 187.95c2.094 5.027 8.02 7.501 13.061 5.41 5.033-2.088 7.487-8.03 5.409-13.06-2.081-5.038-8.029-7.487-13.06-5.41-5.052 2.086-7.477 8.018-5.41 13.06z"/></g></g></svg>