<svg id="Layer_1" enable-background="new 0 0 512.008 512.008"  viewBox="0 0 512.008 512.008" width="50" xmlns="http://www.w3.org/2000/svg"><g><path d="m511.048 14.808c-.623-8.321-7.537-14.767-15.881-14.805-.372-.001-9.212-.034-24.025.605-64.975 2.811-224.35 17.599-300.752 94.001-33.36 33.36-54.34 81.532-62.355 143.177-6.303 48.469-3.213 94.447.491 124.501.425 3.416.877 6.75 1.347 10-.169.117-.331.243-.5.359-14.346 9.794-33.663 27.011-44.225 53.415-13.486 33.717-55.899 55.429-56.3 55.631-7.904 3.952-11.107 13.563-7.155 21.466 2.803 5.607 8.453 8.848 14.323 8.848 2.404 0 4.846-.544 7.143-1.692 2.183-1.091 53.648-27.24 71.7-72.369 7.283-18.208 20.799-30.601 31.319-38.004 6.884 1.272 39.733 6.883 83.238 6.883 8.004 0 16.378-.19 25.007-.633 35.639-1.827 68.431-7.609 97.466-17.187 36.994-12.204 67.991-30.63 92.129-54.768 73.187-73.187 86.457-202.186 87.854-272.566v.001c.557-28.025-.767-46.107-.824-46.863zm-31.171 46.226v.001c-1.301 65.57-13.228 185.314-78.486 250.574-46.863 46.863-117.158 59.901-167.875 62.586-30.387 1.608-57.626-.201-76.362-2.226 2.738-3.287 5.357-6.706 7.846-10.261 10.092-14.418 19.918-27.689 29.333-39.659 13.835 5.171 39.428 13.953 53.671 13.953 8.837 0 16-7.164 16-16s-7.163-16-16-16c-5.784 0-19.139-3.838-31.868-8.17 18.624-21.016 34.795-35.404 47.023-41.519 8.097-4.049 15.946-8.897 23.43-14.196 8.262 1.935 35.446 7.885 57.415 7.885 8.837 0 16-7.164 16-16s-7.163-16-16-16c-8.105 0-17.387-1.039-25.85-2.346 22.788-22.03 37.84-42.913 38.87-44.355 5.134-7.187 3.47-17.17-3.714-22.309-7.183-5.138-17.175-3.479-22.319 3.701-.234.326-14.819 20.511-36.25 41.056-3.686-9.301-6.736-18.788-6.736-23.748 0-8.836-7.163-16-16-16s-16 7.164-16 16c0 13.592 7.681 33.228 13.064 45.319-6.511 4.673-13.292 8.906-20.219 12.37-10.495 5.247-21.776 13.927-33.254 24.666-4.132-14.431-7.59-28.594-7.59-34.355 0-8.836-7.163-16-16-16s-16 7.164-16 16c0 14.327 9.179 45.181 14.168 60.891-18.569 21.189-36.531 45.238-51.389 66.466-.033.048-.07.093-.103.141-5.324-56.909-6.118-165.808 54.338-226.263 29.331-29.332 77.26-51.811 142.454-66.813 55.489-12.769 109.687-16.662 137.052-17.847 2.628-.113 5.061-.204 7.278-.277.195 7.371.303 17.159.073 28.735z"/></g></svg>