<svg id="Capa_1" enable-background="new 0 0 512 512" height="512" viewBox="0 0 512 512" width="512" xmlns="http://www.w3.org/2000/svg"><g><path d="m462.404 82.683c-2.292-3.866-6.195-6.501-10.638-7.18-24.01-3.673-48.104 2.858-66.892 16.954-5.331-22.875-19.598-43.366-40.344-55.984-3.839-2.335-8.522-2.826-12.764-1.337-.263.092-.512.212-.768.319v-20.454c0-4.494-2.015-8.751-5.49-11.6s-8.045-3.99-12.451-3.108c-23.808 4.761-44.223 19.14-57.057 38.809-12.834-19.668-33.249-34.047-57.059-38.809-4.406-.884-8.977.259-12.451 3.108-3.476 2.849-5.49 7.106-5.49 11.6v20.453c-.256-.106-.505-.226-.768-.319-4.241-1.49-8.925-.999-12.764 1.337-20.746 12.619-35.012 33.109-40.344 55.983-18.787-14.093-42.89-20.624-66.892-16.953-4.442.679-8.346 3.314-10.638 7.18-2.291 3.866-2.729 8.556-1.191 12.778l27.362 75.175c2.904 7.978 7.062 15.264 12.258 21.668-2.195 1.378-4.038 3.321-5.292 5.698-2.596 4.922-2.254 10.876.888 15.468l113.942 166.531h-11.561c-8.284 0-15 6.716-15 15s6.716 15 15 15h19.953l-24.343 82.768c-1.334 4.535-.451 9.434 2.381 13.219s7.282 6.014 12.01 6.014h120c4.728 0 9.178-2.229 12.01-6.014s3.715-8.684 2.381-13.219l-24.345-82.768h19.953c8.284 0 15-6.716 15-15s-6.716-15-15-15h-11.562l113.942-166.53c3.142-4.592 3.483-10.546.888-15.468-1.254-2.378-3.097-4.32-5.292-5.698 5.196-6.404 9.354-13.69 12.258-21.667l27.362-75.175c1.537-4.224 1.099-8.913-1.192-12.779zm-222.988 297.317c-2.955-37.724 6.017-69.529 26.76-94.678 31.726-38.465 84.529-54.458 118.421-60.988l-106.509 155.666zm-33.171-190c3.071-4.111 5.752-8.56 7.971-13.319 2.435-5.222 4.222-10.63 5.399-16.128 6.587 3.671 13.774 6.387 21.384 7.938v21.509zm64.755-21.508c7.61-1.551 14.797-4.268 21.384-7.938 1.178 5.498 2.964 10.906 5.399 16.128 2.219 4.759 4.9 9.208 7.971 13.319h-34.754zm-60-131.965c14.892 8.683 25.667 23.714 28.587 41.236l1.617 9.704c1.205 7.233 7.463 12.534 14.796 12.534s13.591-5.301 14.796-12.534l1.617-9.704c2.92-17.522 13.695-32.554 28.587-41.236v58.474c0 24.813-20.187 45-45 45s-45-20.187-45-45zm-86.076 97.873 4.84 8.565c3.606 6.385 11.302 9.224 18.189 6.717 6.891-2.508 10.958-9.629 9.617-16.838l-1.799-9.672c-3.249-17.464 1.735-35.275 12.759-48.527l19.999 54.948c4.111 11.295 3.578 23.515-1.502 34.409s-14.098 19.157-25.393 23.269c-11.298 4.111-23.518 3.577-34.409-1.502-10.894-5.08-19.157-14.098-23.268-25.393l-20-54.948c16.964 3.066 32.23 13.506 40.967 28.972zm177.724 85.6c-21.642 10.938-42.751 25.828-59.516 46.111-18.613 22.52-29.674 48.953-33.122 78.956l-85.572-125.067zm-86.601 262 21.177-72h37.553l21.177 72zm191.995-321.624c-4.11 11.295-12.374 20.312-23.268 25.393-10.893 5.08-23.113 5.613-34.409 1.502-11.295-4.111-20.312-12.375-25.393-23.269s-5.613-23.114-1.502-34.409l19.999-54.948c11.023 13.252 16.008 31.062 12.759 48.527l-1.799 9.672c-1.341 7.209 2.727 14.33 9.617 16.838 6.885 2.509 14.583-.333 18.189-6.717l4.84-8.566c8.737-15.468 24.001-25.908 40.966-28.973z"/></g></svg>